<svg width="99.000000" height="99.000000" viewBox="0 0 99 99" fill="none" xmlns="http://www.w3.org/2000/svg" xmlns:xlink="http://www.w3.org/1999/xlink">
	<desc>
			Created with Pixso.
	</desc>
	<defs>
		<filter id="filter_280_706_dd" x="0.000000" y="0.000000" width="99.000000" height="99.000000" filterUnits="userSpaceOnUse" color-interpolation-filters="sRGB">
			<feFlood flood-opacity="0" result="BackgroundImageFix"/>
			<feColorMatrix in="SourceAlpha" type="matrix" values="0 0 0 0 0 0 0 0 0 0 0 0 0 0 0 0 0 0 127 0" result="hardAlpha"/>
			<feOffset dx="0" dy="0"/>
			<feGaussianBlur stdDeviation="7.66667"/>
			<feComposite in2="hardAlpha" operator="out" k2="-1" k3="1"/>
			<feColorMatrix type="matrix" values="0 0 0 0 0.58039 0 0 0 0 0.58039 0 0 0 0 0.58039 0 0 0 0.17 0"/>
			<feBlend mode="normal" in2="BackgroundImageFix" result="effect_dropShadow_1"/>
			<feBlend mode="normal" in="SourceGraphic" in2="effect_dropShadow_1" result="shape"/>
		</filter>
	</defs>
	<g filter="url(#filter_280_706_dd)">
		<rect id="Frame 21315" rx="26.500000" width="53.000000" height="53.000000" transform="translate(23.000000 23.000000)" fill="#FFFFFF" fill-opacity="1.000000"/>
		<path id="Vector" d="M44.76 37.34C44.51 37.11 44.19 36.99 43.85 37C43.51 37 43.18 37.14 42.94 37.37C42.7 37.61 42.57 37.93 42.56 38.27C42.55 38.6 42.68 38.92 42.91 39.17L53.34 49.46L42.91 59.76C42.78 59.87 42.68 60.02 42.61 60.18C42.54 60.33 42.5 60.51 42.5 60.68C42.49 60.85 42.52 61.03 42.59 61.19C42.66 61.35 42.75 61.49 42.88 61.62C43 61.74 43.15 61.84 43.31 61.9C43.48 61.97 43.65 62 43.83 61.99C44 61.99 44.18 61.95 44.34 61.88C44.5 61.81 44.64 61.71 44.76 61.58L56.11 50.38C56.36 50.13 56.5 49.81 56.5 49.46C56.5 49.12 56.36 48.79 56.11 48.55L44.76 37.34Z" fill="#E3010F" fill-opacity="1.000000" fill-rule="nonzero"/>
	</g>
</svg>
