<svg width="30.000000" height="33.000000" viewBox="0 0 30 33" fill="none" xmlns="http://www.w3.org/2000/svg" xmlns:xlink="http://www.w3.org/1999/xlink">
	<desc>
			Created with Pixso.
	</desc>
	<defs/>
	<path id="Vector" d="M9.55 15.98L8.84 21.11C8.82 21.3 8.84 21.49 8.92 21.66C8.99 21.84 9.11 21.99 9.27 22.1C9.42 22.22 9.6 22.28 9.79 22.3C9.98 22.32 10.17 22.28 10.35 22.2L14.99 19.94L19.65 22.2C19.82 22.28 20.01 22.32 20.2 22.3C20.39 22.28 20.57 22.22 20.73 22.1C20.88 21.99 21 21.84 21.08 21.66C21.15 21.49 21.18 21.3 21.15 21.11L20.44 15.99L24.03 12.26C24.16 12.12 24.25 11.95 24.29 11.77C24.34 11.58 24.33 11.39 24.27 11.2C24.21 11.02 24.1 10.86 23.96 10.73C23.82 10.61 23.64 10.53 23.45 10.49L18.37 9.59L15.93 5.02C15.84 4.86 15.7 4.71 15.54 4.62C15.38 4.52 15.19 4.47 15 4.47C14.81 4.47 14.62 4.52 14.46 4.62C14.29 4.71 14.16 4.86 14.07 5.02L11.64 9.58L6.54 10.49C6.35 10.53 6.18 10.61 6.03 10.73C5.89 10.86 5.78 11.02 5.72 11.2C5.67 11.39 5.66 11.58 5.7 11.77C5.74 11.95 5.83 12.12 5.97 12.26L9.55 15.98ZM11.83 10.64C11.99 10.61 12.13 10.55 12.26 10.45C12.39 10.36 12.5 10.24 12.57 10.1L14.98 5.53L15.45 5.28L14.98 5.53L17.42 10.1C17.5 10.24 17.6 10.36 17.73 10.45C17.86 10.55 18.01 10.61 18.17 10.64L23.25 11.52L19.67 15.25C19.55 15.36 19.47 15.5 19.42 15.65C19.37 15.81 19.36 15.97 19.38 16.12L20.12 21.24L15.46 18.97C15.31 18.9 15.16 18.87 15 18.87C14.84 18.87 14.68 18.9 14.54 18.97L9.9 21.25L10.61 16.12C10.64 15.97 10.62 15.8 10.57 15.65C10.52 15.5 10.44 15.36 10.33 15.25L6.73 11.55L11.83 10.64Z" fill="#E3010F" fill-opacity="1.000000" fill-rule="nonzero"/>
	<path id="Vector" d="M28.01 16.49C28.26 15.48 28.39 14.43 28.39 13.39C28.39 9.83 26.98 6.43 24.47 3.92C21.95 1.41 18.55 -0.01 15 -0.01C11.44 -0.01 8.04 1.41 5.53 3.92C3.02 6.43 1.61 9.83 1.61 13.39C1.61 14.43 1.73 15.48 1.98 16.49C0.94 17.41 0.26 18.66 0.06 20.03C-0.14 21.4 0.14 22.79 0.86 23.97C1.58 25.15 2.7 26.04 4.01 26.47C5.32 26.91 6.75 26.87 8.03 26.37L8.03 31.6C8.03 31.68 8.05 31.75 8.08 31.82C8.12 31.89 8.16 31.96 8.22 32.01C8.28 32.06 8.35 32.09 8.43 32.11C8.5 32.14 8.58 32.14 8.66 32.13L15 31.07L21.34 32.13C21.37 32.13 21.39 32.13 21.42 32.13C21.57 32.13 21.7 32.08 21.8 31.98C21.9 31.88 21.96 31.74 21.96 31.6L21.96 26.37C23.25 26.87 24.67 26.91 25.98 26.47C27.29 26.03 28.41 25.15 29.13 23.97C29.85 22.79 30.13 21.39 29.93 20.03C29.73 18.66 29.05 17.41 28.01 16.49ZM15 1.07C18.26 1.07 21.39 2.37 23.7 4.68C26.01 6.99 27.31 10.12 27.32 13.39C27.32 14.45 27.18 15.51 26.9 16.54C26.16 19.3 24.5 21.72 22.18 23.39C21.85 23.63 21.51 23.85 21.16 24.05L21.16 24.05L21.15 24.06C20.89 24.21 20.62 24.35 20.38 24.46C18.7 25.28 16.86 25.71 15 25.71C13.13 25.71 11.29 25.28 9.61 24.46C9.38 24.35 9.1 24.21 8.84 24.05C8.48 23.85 8.14 23.63 7.81 23.39C5.5 21.72 3.83 19.3 3.09 16.54C2.81 15.51 2.68 14.45 2.68 13.39C2.68 10.12 3.98 6.99 6.29 4.68C8.6 2.37 11.73 1.07 15 1.07ZM5.89 25.71C4.96 25.71 4.05 25.44 3.26 24.93C2.48 24.42 1.87 23.7 1.49 22.85C1.11 21.99 0.98 21.05 1.13 20.13C1.28 19.21 1.68 18.35 2.31 17.66C2.32 17.69 2.33 17.72 2.35 17.76C2.46 18.09 2.58 18.41 2.72 18.73C2.73 18.76 2.75 18.78 2.76 18.81C2.9 19.12 3.05 19.44 3.22 19.74C3.23 19.77 3.25 19.79 3.26 19.82C3.43 20.13 3.61 20.42 3.8 20.72C3.83 20.76 3.86 20.81 3.89 20.85C4.08 21.13 4.28 21.41 4.49 21.68C4.53 21.72 4.56 21.76 4.6 21.81C4.82 22.08 5.04 22.34 5.28 22.59C5.31 22.62 5.33 22.64 5.36 22.67C5.86 23.2 6.41 23.68 6.99 24.11C7.03 24.14 7.06 24.17 7.1 24.19C7.37 24.4 7.66 24.59 7.95 24.77C7.98 24.79 8.01 24.81 8.03 24.82L8.03 25.2C7.37 25.53 6.63 25.71 5.89 25.71ZM9.1 25.52L9.1 25.41L9.14 25.43C10.8 26.24 12.61 26.69 14.46 26.76L14.46 30.07L9.1 30.97L9.1 25.52ZM20.89 30.97L15.53 30.07L15.53 26.76C17.38 26.69 19.19 26.24 20.85 25.43C20.86 25.42 20.88 25.41 20.89 25.41L20.89 30.97ZM24.1 25.71C23.36 25.71 22.63 25.53 21.96 25.2L21.96 24.82C21.99 24.81 22.01 24.79 22.04 24.77C22.33 24.59 22.62 24.4 22.89 24.19C22.93 24.17 22.97 24.14 23.01 24.11C23.29 23.89 23.58 23.67 23.85 23.43L23.85 23.43C24.12 23.19 24.38 22.94 24.63 22.68C24.66 22.65 24.69 22.62 24.71 22.59C24.95 22.34 25.18 22.08 25.39 21.81C25.43 21.76 25.47 21.72 25.5 21.68C25.71 21.41 25.91 21.13 26.1 20.85C26.13 20.81 26.16 20.76 26.19 20.72C26.38 20.43 26.57 20.13 26.74 19.82C26.75 19.8 26.76 19.77 26.77 19.75C26.94 19.44 27.1 19.12 27.24 18.79C27.25 18.77 27.26 18.75 27.27 18.74C27.41 18.41 27.54 18.08 27.65 17.74C27.66 17.71 27.67 17.69 27.68 17.66C28.31 18.35 28.72 19.21 28.86 20.13C29.01 21.05 28.89 21.99 28.51 22.85C28.13 23.7 27.51 24.42 26.73 24.93C25.95 25.44 25.03 25.71 24.1 25.71Z" fill="#E3010F" fill-opacity="1.000000" fill-rule="nonzero"/>
</svg>
