<svg width="33.000000" height="33.000000" viewBox="0 0 33 33" fill="none" xmlns="http://www.w3.org/2000/svg" xmlns:xlink="http://www.w3.org/1999/xlink">
	<desc>
			Created with Pixso.
	</desc>
	<defs/>
	<path id="Vector" d="M0 11.25C0 10.97 0.23 10.74 0.51 10.74C0.79 10.74 1.02 10.97 1.02 11.25L1.02 29.83C1.02 30.42 1.26 30.95 1.65 31.34C2.04 31.73 2.57 31.97 3.16 31.97L29.69 31.97C30.28 31.97 30.82 31.73 31.21 31.34C31.59 30.95 31.83 30.42 31.83 29.83L31.83 11.25C31.83 10.97 32.06 10.74 32.35 10.74C32.63 10.74 32.86 10.97 32.86 11.25L32.86 29.83C32.86 30.7 32.5 31.49 31.93 32.06C31.36 32.64 30.57 32.99 29.7 32.99L3.16 32.99C2.29 32.99 1.5 32.64 0.93 32.06C0.35 31.49 0 30.7 0 29.83L0 11.25Z" fill="#E3010F" fill-opacity="1.000000" fill-rule="nonzero"/>
	<path id="Vector" d="M9.95 13.09L5 13.09L5 18.7L9.95 18.7L9.95 13.09ZM4.49 12.07L10.45 12.07L10.46 12.07C10.74 12.07 10.97 12.3 10.97 12.58L10.97 19.2L10.97 19.21C10.97 19.5 10.74 19.73 10.46 19.73L4.5 19.73L4.49 19.73C4.21 19.73 3.98 19.5 3.98 19.21L3.98 12.59L3.98 12.58C3.97 12.3 4.21 12.07 4.49 12.07Z" fill="#E3010F" fill-opacity="1.000000" fill-rule="nonzero"/>
	<path id="Vector" d="M27.86 13.09L22.91 13.09L22.91 18.7L27.86 18.7L27.86 13.09ZM22.4 12.07L28.35 12.07L28.37 12.07C28.65 12.07 28.88 12.3 28.88 12.58L28.88 19.2L28.88 19.21C28.88 19.5 28.65 19.73 28.37 19.73L22.41 19.73L22.4 19.73C22.12 19.73 21.88 19.5 21.88 19.21L21.88 12.59L21.88 12.58C21.88 12.3 22.12 12.07 22.4 12.07Z" fill="#E3010F" fill-opacity="1.000000" fill-rule="nonzero"/>
	<path id="Vector" d="M18.9 13.09L13.96 13.09L13.96 18.7L18.9 18.7L18.9 13.09ZM13.44 12.07L19.4 12.07L19.41 12.07C19.7 12.07 19.93 12.3 19.93 12.58L19.93 19.2L19.93 19.21C19.93 19.5 19.7 19.73 19.41 19.73L13.46 19.73L13.44 19.73C13.16 19.73 12.93 19.5 12.93 19.21L12.93 12.59L12.93 12.58C12.93 12.3 13.16 12.07 13.44 12.07Z" fill="#E3010F" fill-opacity="1.000000" fill-rule="nonzero"/>
	<path id="Vector" d="M9.95 22.38L5 22.38L5 27.99L9.95 27.99L9.95 22.38ZM4.49 21.35L10.45 21.35L10.46 21.35C10.74 21.35 10.97 21.59 10.97 21.87L10.97 28.49L10.97 28.5C10.97 28.79 10.74 29.02 10.46 29.02L4.5 29.02L4.49 29.02C4.21 29.02 3.98 28.78 3.98 28.5L3.98 21.88L3.98 21.87C3.97 21.59 4.21 21.35 4.49 21.35Z" fill="#E3010F" fill-opacity="1.000000" fill-rule="nonzero"/>
	<path id="Vector" d="M27.86 22.38L22.91 22.38L22.91 27.99L27.86 27.99L27.86 22.38ZM22.4 21.35L28.35 21.35L28.37 21.35C28.65 21.35 28.88 21.59 28.88 21.87L28.88 28.49L28.88 28.5C28.88 28.79 28.65 29.02 28.37 29.02L22.41 29.02L22.4 29.02C22.12 29.02 21.88 28.78 21.88 28.5L21.88 21.88L21.88 21.87C21.88 21.59 22.12 21.35 22.4 21.35Z" fill="#E3010F" fill-opacity="1.000000" fill-rule="nonzero"/>
	<path id="Vector" d="M18.9 22.38L13.96 22.38L13.96 27.99L18.9 27.99L18.9 22.38ZM13.44 21.35L19.4 21.35L19.41 21.35C19.7 21.35 19.93 21.59 19.93 21.87L19.93 28.49L19.93 28.5C19.93 28.79 19.7 29.02 19.41 29.02L13.46 29.02L13.44 29.02C13.16 29.02 12.93 28.78 12.93 28.5L12.93 21.88L12.93 21.87C12.93 21.59 13.16 21.35 13.44 21.35Z" fill="#E3010F" fill-opacity="1.000000" fill-rule="nonzero"/>
	<path id="Vector" d="M24.64 6.05C24.64 6.33 24.41 6.56 24.13 6.56C23.85 6.56 23.62 6.33 23.62 6.05L23.62 0.51C23.62 0.23 23.85 0 24.13 0C24.41 0 24.64 0.23 24.64 0.51L24.64 6.05L24.64 6.05Z" fill="#E3010F" fill-opacity="1.000000" fill-rule="nonzero"/>
	<path id="Vector" d="M9.24 6.05C9.24 6.33 9.01 6.56 8.73 6.56C8.44 6.56 8.21 6.33 8.21 6.05L8.21 0.51C8.21 0.23 8.44 0 8.72 0C9.01 0 9.24 0.23 9.24 0.51L9.24 6.05Z" fill="#E3010F" fill-opacity="1.000000" fill-rule="nonzero"/>
	<path id="Vector" d="M8.72 2.57C9.01 2.57 9.24 2.8 9.24 3.08C9.24 3.36 9.01 3.59 8.72 3.59L3.16 3.59C2.58 3.59 2.04 3.84 1.65 4.22L1.63 4.25C1.26 4.63 1.02 5.16 1.02 5.73L1.02 8.09L31.83 8.09L31.83 5.73C31.83 5.15 31.59 4.61 31.2 4.22L31.18 4.2C30.79 3.82 30.27 3.59 29.69 3.59L26.18 3.59C25.9 3.59 25.67 3.36 25.67 3.08C25.67 2.8 25.9 2.57 26.18 2.57L29.69 2.57C30.54 2.57 31.32 2.91 31.89 3.47L31.93 3.5C32.5 4.07 32.86 4.86 32.86 5.73L32.86 8.59L32.86 8.6C32.86 8.88 32.63 9.11 32.35 9.11L0.52 9.11L0.51 9.11C0.23 9.12 0 8.88 0 8.6L0 5.73C0 4.88 0.34 4.11 0.9 3.53L0.93 3.5C1.5 2.92 2.29 2.56 3.16 2.56L8.72 2.56L8.72 2.57ZM24.13 2.57L10.78 2.57C10.49 2.57 10.26 2.8 10.26 3.08C10.26 3.36 10.5 3.59 10.78 3.59L24.13 3.59C24.41 3.59 24.64 3.36 24.64 3.08C24.64 2.8 24.41 2.57 24.13 2.57Z" fill="#E3010F" fill-opacity="1.000000" fill-rule="nonzero"/>
</svg>
