<svg width="35.000000" height="35.000000" viewBox="0 0 35 35" fill="none" xmlns="http://www.w3.org/2000/svg" xmlns:xlink="http://www.w3.org/1999/xlink">
	<desc>
			Created with Pixso.
	</desc>
	<defs/>
	<path id="4" d="M20.37 21.28L21.63 21.28L21.63 18.98L20.37 18.98L20.37 12.07L17.52 12.07L12.77 19.02L12.77 21.28L17.32 21.28L17.32 23.5L20.37 23.5L20.37 21.28ZM17.32 17.65L17.32 18.98L15.44 18.98L16.71 17.1Q16.91 16.78 17.03 16.55Q17.16 16.32 17.31 15.97L17.39 15.97Q17.39 15.99 17.37 16.18Q17.36 16.37 17.35 16.65Q17.34 16.92 17.33 17.2Q17.32 17.47 17.32 17.65Z" fill="#E3010F" fill-opacity="1.000000" fill-rule="evenodd"/>
	<rect id="Frame 21333" rx="17.000000" width="34.000000" height="34.000000" transform="translate(0.500000 0.500000)" stroke="#E3010F" stroke-opacity="1.000000" stroke-width="1.000000"/>
</svg>
