<svg width="35.000000" height="35.000000" viewBox="0 0 35 35" fill="none" xmlns="http://www.w3.org/2000/svg" xmlns:xlink="http://www.w3.org/1999/xlink">
	<desc>
			Created with Pixso.
	</desc>
	<defs/>
	<path id="5" d="M19.04 15.76Q18.41 15.51 17.68 15.51Q17.11 15.51 16.85 15.56Q16.59 15.6 16.34 15.65L16.48 14.14L20.37 14.14L20.37 11.57L13.85 11.57L13.42 17.6L14.56 18.17Q14.87 18.07 15.28 17.98Q15.33 17.97 15.38 17.96Q15.75 17.89 16.13 17.89Q17.08 17.89 17.55 18.26Q17.73 18.41 17.85 18.6Q18.02 18.89 18.02 19.28Q18.02 19.75 17.81 20.07Q17.78 20.13 17.74 20.18Q17.54 20.42 17.21 20.56Q16.81 20.72 16.24 20.72Q15.53 20.72 14.68 20.5Q13.83 20.28 13.23 20L13.23 22.53Q13.87 22.85 14.69 23Q15.5 23.15 16.5 23.15Q18.06 23.15 19.08 22.69Q19.85 22.36 20.32 21.78Q20.49 21.58 20.62 21.35Q21.14 20.46 21.14 19.19Q21.14 18.01 20.67 17.19Q20.34 16.62 19.86 16.24Q19.66 16.07 19.42 15.94Q19.23 15.84 19.04 15.76Z" fill="#E3010F" fill-opacity="1.000000" fill-rule="evenodd"/>
	<rect id="Frame 21333" rx="17.000000" width="34.000000" height="34.000000" transform="translate(0.500000 0.000000)" stroke="#E3010F" stroke-opacity="1.000000" stroke-width="1.000000"/>
</svg>
