<svg width="35.000000" height="35.000000" viewBox="0 0 35 35" fill="none" xmlns="http://www.w3.org/2000/svg" xmlns:xlink="http://www.w3.org/1999/xlink">
	<desc>
			Created with Pixso.
	</desc>
	<defs/>
	<path id="3" d="M20.53 15.45Q20.88 14.86 20.88 14.05Q20.88 13.43 20.62 12.94Q20.37 12.46 19.87 12.11Q18.85 11.41 17.09 11.41Q15.6 11.41 14.69 11.75Q13.77 12.08 13.06 12.57L14.34 14.63Q14.51 14.52 14.85 14.35Q15.18 14.17 15.64 14.03Q16.09 13.89 16.6 13.89Q17.18 13.89 17.53 14.11Q17.68 14.2 17.76 14.33Q17.89 14.51 17.89 14.78Q17.89 14.96 17.83 15.11Q17.77 15.27 17.66 15.41Q17.43 15.67 16.92 15.83Q16.41 15.99 15.53 15.99L14.82 15.99L14.82 18.31L15.52 18.31Q16.5 18.31 17.03 18.46Q17.56 18.6 17.75 18.88Q17.78 18.91 17.8 18.94Q17.95 19.2 17.95 19.54Q17.95 19.84 17.83 20.07Q17.72 20.26 17.54 20.4Q17.13 20.72 16 20.72Q15.35 20.72 14.57 20.54Q13.78 20.35 13.04 19.97L13.04 22.53Q13.11 22.56 13.18 22.59Q13.85 22.84 14.56 22.99Q15.34 23.15 16.45 23.15Q18.1 23.15 19.16 22.69Q20.21 22.22 20.71 21.44Q20.94 21.09 21.07 20.7Q21.21 20.24 21.21 19.73Q21.21 18.79 20.77 18.18Q20.64 18.01 20.47 17.86Q19.72 17.2 18.35 17.03L18.35 16.98Q18.89 16.83 19.36 16.57Q19.49 16.5 19.61 16.42Q19.9 16.23 20.13 15.98Q20.36 15.74 20.53 15.45Z" fill="#E3010F" fill-opacity="1.000000" fill-rule="evenodd"/>
	<rect id="Frame 21333" rx="17.000000" width="34.000000" height="34.000000" transform="translate(0.500000 0.000000)" stroke="#E3010F" stroke-opacity="1.000000" stroke-width="1.000000"/>
</svg>
