<svg width="35.000000" height="35.000000" viewBox="0 0 35 35" fill="none" xmlns="http://www.w3.org/2000/svg" xmlns:xlink="http://www.w3.org/1999/xlink">
	<desc>
			Created with Pixso.
	</desc>
	<defs/>
	<path id="2" d="M12.97 23L21.26 23L21.26 20.45L16.94 20.45L16.94 20.37L17.78 19.62Q18.86 18.64 19.59 17.86Q20.32 17.08 20.68 16.3Q21.04 15.53 21.04 14.53Q21.04 13.93 20.83 13.41Q20.73 13.16 20.57 12.93Q20.51 12.84 20.44 12.75Q19.99 12.17 19.25 11.82Q18.39 11.41 17.23 11.41Q16.1 11.41 15.31 11.67Q14.52 11.94 13.94 12.36Q13.36 12.78 12.85 13.24L14.54 15.22Q15.24 14.62 15.79 14.31Q16.34 14 16.88 14Q17.24 14 17.52 14.15Q17.59 14.18 17.65 14.23Q17.73 14.28 17.79 14.35Q17.98 14.58 17.98 14.96Q17.98 15.1 17.96 15.23Q17.91 15.5 17.78 15.76Q17.59 16.14 17.11 16.69Q16.63 17.24 15.76 18.14L12.97 20.96L12.97 23Z" fill="#E3010F" fill-opacity="1.000000" fill-rule="evenodd"/>
	<rect id="Frame 21333" rx="17.000000" width="34.000000" height="34.000000" transform="translate(0.500000 0.000000)" stroke="#E3010F" stroke-opacity="1.000000" stroke-width="1.000000"/>
</svg>
