<svg width="52.000000" height="43.000000" viewBox="0 0 52 43" fill="none" xmlns="http://www.w3.org/2000/svg" xmlns:xlink="http://www.w3.org/1999/xlink">
	<desc>
			Created with Pixso.
	</desc>
	<defs/>
	<path id="Vector" d="M38.09 29.97C40.72 29.97 42.56 28.21 42.56 25.68C42.56 23.15 40.72 21.44 38.09 21.44L33.03 21.44C32.83 21.44 32.66 21.6 32.66 21.79L32.66 27.92L31.05 27.92C30.85 27.92 30.68 28.08 30.68 28.27L30.68 29.62C30.68 29.81 30.85 29.97 31.05 29.97L32.66 29.97L32.66 30.92L31.05 30.92C30.85 30.92 30.68 31.08 30.68 31.28L30.68 32.46C30.68 32.66 30.85 32.82 31.05 32.82L32.66 32.82L32.66 34.36C32.66 34.55 32.83 34.71 33.03 34.71L34.85 34.71C35.05 34.71 35.22 34.55 35.22 34.36L35.22 32.82L40.21 32.82C40.41 32.82 40.58 32.66 40.58 32.46L40.58 31.28C40.58 31.08 40.41 30.92 40.21 30.92L35.22 30.92L35.22 29.97L38.09 29.97ZM35.22 23.48L37.65 23.48C39.1 23.48 39.97 24.34 39.97 25.68C39.97 27.04 39.1 27.92 37.61 27.92L35.22 27.92L35.22 23.48Z" fill="#E3010F" fill-opacity="1.000000" fill-rule="nonzero"/>
	<path id="Vector" d="M36.38 13.15L30.78 13.15L30.78 7.45C30.78 7.16 30.66 6.88 30.45 6.67C30.25 6.46 29.97 6.35 29.68 6.35L28.31 6.35L28.31 0.43C28.31 0.13 28.2 -0.15 27.99 -0.36C27.78 -0.56 27.5 -0.68 27.21 -0.68L0.82 -0.68C0.53 -0.68 0.25 -0.56 0.04 -0.36C-0.17 -0.15 -0.28 0.13 -0.28 0.43L-0.28 7.23C-0.28 7.38 -0.25 7.52 -0.2 7.66C-0.14 7.79 -0.06 7.91 0.04 8.02C0.14 8.12 0.26 8.2 0.4 8.26C0.53 8.31 0.67 8.34 0.82 8.34L2.27 8.34L2.27 14.26C2.27 14.55 2.39 14.83 2.59 15.04C2.8 15.25 3.08 15.37 3.37 15.37L4.47 15.37L4.47 19.98L1.17 19.98C0.88 19.98 0.6 20.09 0.39 20.3C0.19 20.51 0.07 20.79 0.07 21.08L0.07 41.43C0.07 41.73 0.19 42.01 0.39 42.21C0.6 42.42 0.88 42.54 1.17 42.54L27.56 42.54C27.86 42.54 28.14 42.42 28.34 42.21C28.55 42.01 28.66 41.73 28.66 41.43L28.66 40.3C30.58 41.55 32.77 42.34 35.05 42.58C37.32 42.83 39.62 42.54 41.77 41.73C43.91 40.92 45.83 39.62 47.39 37.92C48.94 36.23 50.08 34.19 50.71 31.98C51.34 29.76 51.44 27.42 51.02 25.16C50.59 22.89 49.64 20.76 48.25 18.93C46.86 17.1 45.06 15.62 43 14.62C40.94 13.62 38.67 13.11 36.38 13.15ZM1.92 1.54L26.11 1.54L26.11 6.12L1.92 6.12L1.92 1.54ZM4.47 8.56L28.66 8.56L28.66 13.15L4.47 13.15L4.47 8.56ZM6.67 15.37L28.66 15.37C26.81 16.53 25.23 18.1 24.04 19.95L6.67 19.95L6.67 15.37ZM22.06 33.59L2.27 33.59L2.27 29L21.71 29C21.82 30.58 22.19 32.12 22.79 33.59L22.06 33.59ZM2.27 22.17L22.88 22.17C22.27 23.63 21.9 25.18 21.78 26.76L2.27 26.76L2.27 22.17ZM26.46 40.39L2.27 40.39L2.27 35.8L24.02 35.8C24.68 36.85 25.48 37.81 26.38 38.66L26.46 40.39ZM36.47 40.39C34.29 40.39 32.15 39.82 30.27 38.72C28.38 37.62 26.81 36.05 25.72 34.14C24.63 32.24 24.05 30.09 24.05 27.89C24.05 25.7 24.63 23.54 25.72 21.64C25.76 21.58 25.8 21.51 25.83 21.44C26.94 19.57 28.53 18.03 30.42 16.96C32.32 15.9 34.45 15.36 36.62 15.39C38.79 15.42 40.91 16.02 42.77 17.13C44.64 18.25 46.18 19.83 47.25 21.73C48.32 23.63 48.87 25.78 48.86 27.96C48.85 30.15 48.26 32.29 47.17 34.18C46.08 36.06 44.52 37.63 42.65 38.72C40.77 39.81 38.64 40.39 36.47 40.39Z" fill="#E3010F" fill-opacity="1.000000" fill-rule="nonzero"/>
</svg>
