<svg width="50.000000" height="51.000000" viewBox="0 0 50 51" fill="none" xmlns="http://www.w3.org/2000/svg" xmlns:xlink="http://www.w3.org/1999/xlink">
	<desc>
			Created with Pixso.
	</desc>
	<defs/>
	<path id="Vector" d="M19.82 1L30.17 1L31.14 7.83C33.27 8.61 35.25 9.77 36.97 11.24L43.32 8.72L48.5 17.6L43.11 21.49C43.55 23.75 43.55 26.07 43.11 28.33L48.5 32.49L43.32 41.38L36.97 38.85C36.12 39.58 35.2 40.22 34.21 40.76C33.24 41.33 32.21 41.8 31.14 42.16L30.17 49L19.82 49L18.85 42.16C16.72 41.38 14.74 40.22 13.02 38.75L6.67 41.27L1.5 32.39L6.88 28.33C6.44 26.07 6.44 23.75 6.88 21.49L1.5 17.39L6.67 8.51L13.02 11.04C13.87 10.31 14.79 9.66 15.78 9.13C16.76 8.59 17.79 8.16 18.85 7.83L19.82 1Z" stroke="#E3010F" stroke-opacity="1.000000" stroke-width="3.000000" stroke-linejoin="round"/>
	<path id="Vector" d="M25 34C20.3 34 16.5 29.97 16.5 25C16.5 20.02 20.3 16 25 16C29.69 16 33.5 20.02 33.5 25C33.5 29.97 29.69 34 25 34Z" stroke="#E3010F" stroke-opacity="1.000000" stroke-width="3.000000" stroke-linejoin="round"/>
</svg>
