<svg width="55.000000" height="49.000000" viewBox="0 0 55 49" fill="none" xmlns="http://www.w3.org/2000/svg" xmlns:xlink="http://www.w3.org/1999/xlink">
	<desc>
			Created with Pixso.
	</desc>
	<defs/>
	<path id="Vector" d="M53.8 21L42.02 12.49C41.7 12.26 41.27 12.22 40.91 12.41C40.56 12.59 40.33 12.95 40.33 13.35L40.33 19.78L30.24 12.49C29.92 12.26 29.49 12.22 29.14 12.41C28.78 12.59 28.56 12.95 28.56 13.35L28.56 19.78L18.47 12.49C18.14 12.26 17.71 12.22 17.36 12.41C17 12.59 16.78 12.95 16.78 13.35L16.78 20.8L14.58 20.8L13.18 0.51C13.14 -0.05 12.68 -0.48 12.12 -0.48L6.54 -0.48C5.98 -0.48 5.52 -0.05 5.48 0.51L4.08 20.8L0.82 20.8C0.23 20.8 -0.25 21.28 -0.25 21.87L-0.25 47.41C-0.25 48 0.23 48.47 0.82 48.47L53.17 48.47C53.76 48.47 54.24 48 54.24 47.41L54.24 21.87C54.24 21.52 54.07 21.2 53.8 21ZM6.36 18.67L8.63 18.67C9.22 18.67 9.69 18.2 9.69 17.61C9.69 17.02 9.22 16.55 8.63 16.55L6.51 16.55L7.53 1.65L11.12 1.65L12.45 20.8L6.21 20.8L6.36 18.67ZM16.78 25.06L10.85 25.06C10.26 25.06 9.79 25.54 9.79 26.12C9.79 26.71 10.26 27.19 10.85 27.19L16.78 27.19L16.78 29.32L10.85 29.32C10.26 29.32 9.79 29.79 9.79 30.38C9.79 30.97 10.26 31.44 10.85 31.44L16.78 31.44L16.78 33.57L13.93 33.57C13.35 33.57 12.87 34.05 12.87 34.64C12.87 35.22 13.35 35.7 13.93 35.7L16.78 35.7L16.78 37.83L10.85 37.83C10.26 37.83 9.79 38.31 9.79 38.89C9.79 39.48 10.26 39.96 10.85 39.96L16.78 39.96L16.78 42.09L10.85 42.09C10.26 42.09 9.79 42.56 9.79 43.15C9.79 43.74 10.26 44.21 10.85 44.21L16.78 44.21L16.78 46.34L1.88 46.34L1.88 22.93L5.07 22.93C5.07 22.93 5.07 22.93 5.07 22.93L13.59 22.93C13.59 22.93 13.59 22.93 13.59 22.93C13.59 22.93 13.59 22.93 13.59 22.93L16.78 22.93L16.78 25.06ZM52.11 46.34L18.91 46.34L18.91 21.87L18.91 15.44L29 22.73C29.32 22.96 29.75 23 30.1 22.81C30.46 22.63 30.68 22.27 30.68 21.87L30.68 15.44L40.77 22.73C41.1 22.96 41.53 23 41.88 22.81C42.24 22.63 42.46 22.27 42.46 21.87L42.46 15.44L52.11 22.41L52.11 46.34Z" fill="#E3010F" fill-opacity="1.000000" fill-rule="nonzero"/>
	<path id="Vector" d="M10.85 35.7L10.88 35.7C11.46 35.7 11.94 35.22 11.94 34.64C11.94 34.05 11.46 33.57 10.88 33.57L10.85 33.57C10.26 33.57 9.79 34.05 9.79 34.64C9.79 35.22 10.26 35.7 10.85 35.7Z" fill="#E3010F" fill-opacity="1.000000" fill-rule="nonzero"/>
	<path id="Vector" d="M31.25 29.32L26.99 29.32C26.41 29.32 25.93 29.79 25.93 30.38L25.93 34.64C25.93 35.22 26.41 35.7 26.99 35.7L31.25 35.7C31.84 35.7 32.32 35.22 32.32 34.64L32.32 30.38C32.32 29.79 31.84 29.32 31.25 29.32ZM30.19 33.57L28.06 33.57L28.06 31.44L30.19 31.44L30.19 33.57Z" fill="#E3010F" fill-opacity="1.000000" fill-rule="nonzero"/>
	<path id="Vector" d="M38.7 30.38L38.7 34.64C38.7 35.22 39.18 35.7 39.76 35.7L44.02 35.7C44.61 35.7 45.09 35.22 45.09 34.64L45.09 30.38C45.09 29.79 44.61 29.32 44.02 29.32L39.76 29.32C39.18 29.32 38.7 29.79 38.7 30.38ZM40.83 31.44L42.96 31.44L42.96 33.57L40.83 33.57L40.83 31.44Z" fill="#E3010F" fill-opacity="1.000000" fill-rule="nonzero"/>
	<path id="Vector" d="M33.99 42.09L33.96 42.09C33.37 42.09 32.9 42.56 32.9 43.15C32.9 43.74 33.37 44.21 33.96 44.21L33.99 44.21C34.57 44.21 35.05 43.74 35.05 43.15C35.05 42.56 34.57 42.09 33.99 42.09Z" fill="#E3010F" fill-opacity="1.000000" fill-rule="nonzero"/>
	<path id="Vector" d="M30.9 42.09L26.99 42.09C26.41 42.09 25.93 42.56 25.93 43.15C25.93 43.74 26.41 44.21 26.99 44.21L30.9 44.21C31.49 44.21 31.97 43.74 31.97 43.15C31.97 42.56 31.49 42.09 30.9 42.09Z" fill="#E3010F" fill-opacity="1.000000" fill-rule="nonzero"/>
</svg>
