<svg width="44.000000" height="26.000000" viewBox="0 0 44 26" fill="none" xmlns="http://www.w3.org/2000/svg" xmlns:xlink="http://www.w3.org/1999/xlink">
	<desc>
			Created with Pixso.
	</desc>
	<defs/>
	<path id="Vector" d="M42.87 3.04L34.75 3.04L24.73 -0.23C24.13 -0.42 23.49 -0.48 22.86 -0.4C22.23 -0.32 21.63 -0.1 21.1 0.24L15.06 4.12C15 4.16 14.94 4.21 14.9 4.28C14.85 4.34 14.82 4.41 14.81 4.49C14.79 4.56 14.79 4.64 14.8 4.72C14.81 4.79 14.84 4.87 14.89 4.93C14.93 5 14.98 5.05 15.04 5.1C15.11 5.14 15.18 5.17 15.26 5.19C15.33 5.21 15.41 5.21 15.48 5.19C15.56 5.18 15.63 5.15 15.7 5.11L21.73 1.24C22.12 0.99 22.56 0.83 23.01 0.77C23.47 0.72 23.93 0.76 24.36 0.9L34.47 4.19C34.53 4.21 34.59 4.22 34.65 4.22L42.28 4.22L42.28 14.12L37.9 14.12C37.79 14.12 37.69 14.15 37.59 14.21C37.5 14.26 37.43 14.34 37.38 14.44C36.72 15.56 35.71 16.43 34.51 16.91L34.51 14.27C35.45 13.86 36.46 13.16 37.1 11.94C37.14 11.87 37.16 11.8 37.17 11.72C37.17 11.64 37.17 11.56 37.14 11.49C37.12 11.42 37.08 11.35 37.03 11.29C36.98 11.23 36.92 11.18 36.86 11.14C36.79 11.11 36.71 11.08 36.63 11.08C36.56 11.07 36.48 11.08 36.41 11.1C36.33 11.12 36.26 11.16 36.2 11.21C36.14 11.26 36.09 11.32 36.06 11.39C34.94 13.53 32.15 13.63 32.14 13.63C28.41 13.63 27.33 11.02 27.29 10.91C27.24 10.8 27.17 10.71 27.07 10.64C26.97 10.57 26.85 10.54 26.74 10.53L21.2 10.53C20.99 10.54 20.78 10.5 20.58 10.43C20.39 10.35 20.21 10.24 20.06 10.09C19.91 9.94 19.79 9.77 19.71 9.57C19.63 9.38 19.59 9.17 19.59 8.96C19.59 8.75 19.63 8.54 19.71 8.35C19.79 8.16 19.91 7.98 20.06 7.84C20.21 7.69 20.39 7.57 20.58 7.5C20.78 7.42 20.99 7.38 21.2 7.39L27.81 7.39C27.89 7.39 27.97 7.38 28.04 7.35C28.12 7.32 28.18 7.28 28.24 7.23C28.3 7.17 28.34 7.1 28.37 7.03C28.41 6.96 28.42 6.88 28.42 6.8C28.42 6.72 28.41 6.64 28.37 6.57C28.34 6.49 28.3 6.43 28.24 6.37C28.18 6.32 28.12 6.28 28.04 6.25C27.97 6.22 27.89 6.21 27.81 6.21L21.2 6.21C20.83 6.2 20.47 6.27 20.13 6.4C19.79 6.54 19.48 6.74 19.22 7C18.96 7.25 18.75 7.56 18.61 7.9C18.47 8.23 18.39 8.6 18.39 8.96C18.39 9.33 18.47 9.69 18.61 10.03C18.75 10.36 18.96 10.67 19.22 10.93C19.48 11.18 19.79 11.38 20.13 11.52C20.47 11.65 20.83 11.72 21.2 11.71L26.37 11.71C26.86 12.62 28.44 14.8 32.15 14.8C32.55 14.79 32.94 14.73 33.33 14.64L33.33 23.38C33.33 23.61 33.23 23.83 33.07 23.99C32.91 24.15 32.69 24.25 32.46 24.25L2.04 24.25C1.81 24.25 1.59 24.15 1.43 23.99C1.27 23.83 1.17 23.61 1.17 23.38L1.17 8.26C1.17 8.03 1.26 7.81 1.43 7.64C1.59 7.48 1.81 7.39 2.04 7.39L17.07 7.39C17.15 7.39 17.23 7.38 17.3 7.35C17.38 7.32 17.45 7.28 17.5 7.23C17.56 7.17 17.61 7.1 17.64 7.03C17.67 6.96 17.69 6.88 17.69 6.8C17.69 6.72 17.67 6.64 17.64 6.57C17.61 6.49 17.56 6.43 17.5 6.37C17.45 6.32 17.38 6.28 17.3 6.25C17.23 6.22 17.15 6.21 17.07 6.21L2.04 6.21C1.5 6.21 0.98 6.43 0.6 6.81C0.21 7.2 0 7.72 0 8.26L0 23.38C0 23.92 0.21 24.44 0.6 24.82C0.98 25.21 1.5 25.42 2.04 25.43L32.46 25.43C33 25.42 33.52 25.21 33.9 24.82C34.29 24.44 34.5 23.92 34.51 23.38L34.51 18.16C36.62 17.49 37.8 15.97 38.23 15.3L42.87 15.3C43.03 15.3 43.18 15.24 43.29 15.13C43.4 15.02 43.46 14.87 43.46 14.71L43.46 3.63C43.46 3.48 43.4 3.33 43.29 3.22C43.18 3.1 43.03 3.04 42.87 3.04Z" fill="#E3010F" fill-opacity="1.000000" fill-rule="nonzero"/>
	<path id="Vector" d="M3.99 18.92L3.99 12.71C4.61 12.59 5.18 12.29 5.63 11.84C6.08 11.4 6.38 10.83 6.5 10.21L16.56 10.21C16.71 10.2 16.86 10.14 16.96 10.03C17.07 9.92 17.13 9.77 17.13 9.62C17.13 9.47 17.07 9.32 16.96 9.21C16.86 9.1 16.71 9.03 16.56 9.03L5.96 9.03C5.81 9.03 5.66 9.09 5.55 9.2C5.44 9.31 5.37 9.46 5.37 9.62C5.37 9.88 5.32 10.13 5.22 10.37C5.13 10.61 4.98 10.83 4.8 11.01C4.61 11.2 4.4 11.34 4.16 11.44C3.92 11.54 3.66 11.59 3.4 11.59C3.25 11.59 3.1 11.66 2.99 11.77C2.88 11.88 2.82 12.02 2.82 12.18L2.82 19.46C2.82 19.54 2.83 19.61 2.86 19.68C2.89 19.76 2.94 19.82 2.99 19.88C3.04 19.93 3.11 19.97 3.18 20C3.25 20.03 3.33 20.05 3.41 20.05C3.93 20.05 4.43 20.26 4.8 20.63C5.17 21 5.38 21.5 5.38 22.02C5.38 22.1 5.39 22.17 5.42 22.24C5.45 22.32 5.5 22.38 5.55 22.44C5.6 22.49 5.67 22.53 5.74 22.56C5.81 22.59 5.89 22.61 5.97 22.61L28.54 22.61C28.62 22.61 28.69 22.59 28.76 22.56C28.83 22.53 28.9 22.49 28.95 22.44C29.01 22.38 29.05 22.32 29.08 22.24C29.11 22.17 29.13 22.1 29.13 22.02C29.13 21.5 29.34 21 29.71 20.63C30.07 20.26 30.58 20.05 31.1 20.05C31.18 20.05 31.25 20.03 31.32 20C31.39 19.97 31.46 19.93 31.51 19.88C31.57 19.82 31.61 19.76 31.64 19.68C31.67 19.61 31.69 19.54 31.69 19.46L31.69 16.79C31.69 16.72 31.68 16.64 31.65 16.56C31.62 16.49 31.58 16.42 31.52 16.36C31.47 16.3 31.4 16.26 31.33 16.23C31.26 16.2 31.18 16.18 31.1 16.18C31.02 16.18 30.94 16.2 30.87 16.23C30.79 16.26 30.73 16.3 30.67 16.36C30.62 16.42 30.57 16.49 30.55 16.56C30.52 16.64 30.51 16.72 30.51 16.79L30.51 18.92C29.89 19.04 29.32 19.35 28.87 19.79C28.43 20.24 28.12 20.81 28 21.43L6.5 21.43C6.38 20.81 6.07 20.24 5.63 19.79C5.18 19.35 4.61 19.04 3.99 18.92Z" fill="#E3010F" fill-opacity="1.000000" fill-rule="nonzero"/>
	<path id="Vector" d="M17.66 16.89C19.07 16.89 20.06 15.9 20.06 14.49C20.06 13.08 19.07 12.13 17.66 12.13L14.96 12.13C14.85 12.13 14.76 12.22 14.76 12.33L14.76 15.74L13.9 15.74C13.79 15.74 13.7 15.83 13.7 15.94L13.7 16.69C13.7 16.8 13.79 16.89 13.9 16.89L14.76 16.89L14.76 17.41L13.9 17.41C13.79 17.41 13.7 17.5 13.7 17.61L13.7 18.27C13.7 18.38 13.79 18.47 13.9 18.47L14.76 18.47L14.76 19.33C14.76 19.44 14.85 19.53 14.96 19.53L15.93 19.53C16.04 19.53 16.13 19.44 16.13 19.33L16.13 18.47L18.8 18.47C18.91 18.47 19 18.38 19 18.27L19 17.61C19 17.5 18.91 17.41 18.8 17.41L16.13 17.41L16.13 16.89L17.66 16.89ZM16.13 13.26L17.43 13.26C18.2 13.26 18.67 13.75 18.67 14.49C18.67 15.25 18.2 15.74 17.41 15.74L16.13 15.74L16.13 13.26Z" fill="#E3010F" fill-opacity="1.000000" fill-rule="nonzero"/>
	<path id="Vector" d="M10.34 15.4C10.23 15.51 10.17 15.66 10.17 15.81C10.17 15.85 10.17 15.89 10.18 15.93C10.19 15.97 10.2 16 10.22 16.04C10.23 16.07 10.25 16.11 10.27 16.14C10.29 16.17 10.32 16.2 10.34 16.23C10.37 16.26 10.4 16.28 10.43 16.3C10.47 16.32 10.5 16.34 10.54 16.36C10.57 16.37 10.61 16.38 10.65 16.39C10.68 16.4 10.72 16.4 10.76 16.4C10.92 16.4 11.07 16.34 11.18 16.23C11.21 16.2 11.23 16.17 11.25 16.14C11.27 16.11 11.29 16.07 11.31 16.04C11.32 16 11.33 15.97 11.34 15.93C11.35 15.89 11.35 15.85 11.35 15.81C11.35 15.7 11.31 15.58 11.25 15.49C11.18 15.39 11.09 15.32 10.98 15.27C10.88 15.23 10.76 15.22 10.64 15.24C10.53 15.26 10.43 15.32 10.34 15.4L10.34 15.4Z" fill="#E3010F" fill-opacity="1.000000" fill-rule="nonzero"/>
	<path id="Vector" d="M23.25 16.15C23.27 16.18 23.3 16.21 23.32 16.23C23.38 16.3 23.46 16.34 23.54 16.37C23.62 16.4 23.71 16.41 23.8 16.41C23.88 16.4 23.97 16.37 24.04 16.32C24.12 16.28 24.18 16.22 24.23 16.15C24.25 16.11 24.27 16.08 24.28 16.04C24.3 16.01 24.31 15.97 24.32 15.93C24.33 15.9 24.33 15.86 24.33 15.82C24.33 15.74 24.32 15.66 24.29 15.59C24.26 15.51 24.22 15.44 24.17 15.39C24.11 15.33 24.04 15.28 23.97 15.25C23.9 15.22 23.82 15.21 23.74 15.21C23.66 15.21 23.58 15.22 23.51 15.25C23.44 15.28 23.37 15.33 23.31 15.39C23.26 15.44 23.22 15.51 23.19 15.59C23.16 15.66 23.15 15.74 23.15 15.82C23.15 15.86 23.15 15.9 23.16 15.93C23.17 15.97 23.18 16.01 23.2 16.04C23.21 16.08 23.23 16.11 23.25 16.15Z" fill="#E3010F" fill-opacity="1.000000" fill-rule="nonzero"/>
</svg>
