<svg width="26.000000" height="26.000000" viewBox="0 0 26 26" fill="none" xmlns="http://www.w3.org/2000/svg" xmlns:xlink="http://www.w3.org/1999/xlink">
	<desc>
			Created with Pixso.
	</desc>
	<defs/>
	<path id="Vector" d="M12 18C11.86 18 11.73 17.97 11.61 17.92C11.49 17.87 11.38 17.8 11.29 17.71L7.29 13.71C7.1 13.52 6.99 13.26 6.99 13C6.99 12.73 7.1 12.47 7.29 12.29C7.47 12.1 7.73 11.99 8 11.99C8.26 11.99 8.52 12.1 8.7 12.29L12 15.59L18.29 9.29C18.47 9.1 18.73 8.99 19 8.99C19.26 8.99 19.52 9.1 19.7 9.29C19.89 9.47 20 9.73 20 10C20 10.26 19.89 10.52 19.7 10.71L12.71 17.71C12.61 17.8 12.5 17.87 12.38 17.92C12.26 17.97 12.13 18 12 18Z" fill="#E3010F" fill-opacity="1.000000" fill-rule="nonzero"/>
	<path id="Vector" d="M13 26C10.42 26 7.91 25.23 5.77 23.8C3.63 22.38 1.97 20.35 0.98 17.97C0 15.59 -0.26 12.98 0.25 10.46C0.75 7.94 1.98 5.62 3.8 3.8C5.62 1.98 7.94 0.75 10.46 0.24C12.98 -0.26 15.59 0 17.97 0.98C20.35 1.97 22.38 3.63 23.8 5.77C25.23 7.91 26 10.42 26 13C26 16.44 24.63 19.75 22.19 22.19C19.75 24.63 16.44 26 13 26ZM13 2C10.82 2 8.69 2.64 6.88 3.85C5.07 5.06 3.66 6.78 2.83 8.79C2 10.8 1.78 13.01 2.21 15.14C2.63 17.27 3.68 19.23 5.22 20.77C6.76 22.31 8.72 23.36 10.85 23.78C12.98 24.21 15.19 23.99 17.2 23.16C19.21 22.33 20.93 20.92 22.14 19.11C23.35 17.3 24 15.17 24 13C24 10.08 22.84 7.28 20.77 5.22C18.71 3.15 15.91 2 13 2Z" fill="#E3010F" fill-opacity="1.000000" fill-rule="nonzero"/>
</svg>
