<svg width="41.000000" height="43.000000" viewBox="0 0 41 43" fill="none" xmlns="http://www.w3.org/2000/svg" xmlns:xlink="http://www.w3.org/1999/xlink">
	<desc>
			Created with Pixso.
	</desc>
	<defs/>
	<path id="Vector" d="M20 4.06C29.88 4.06 37.93 12.11 37.93 22C37.93 31.88 29.88 39.93 20 39.93C10.11 39.93 2.06 31.88 2.06 22C2.06 12.11 10.11 4.06 20 4.06ZM20 1.5C8.67 1.5 -0.5 10.67 -0.5 22C-0.5 33.32 8.67 42.5 20 42.5C31.32 42.5 40.5 33.32 40.5 22C40.5 10.67 31.32 1.5 20 1.5ZM31.42 28.85L31.31 28.5C31.04 27.69 30.15 26.85 29.33 26.63L26.3 25.8C25.48 25.58 24.3 25.88 23.7 26.48L22.61 27.58C18.62 26.5 15.5 23.37 14.42 19.39L15.52 18.29C16.12 17.69 16.42 16.52 16.19 15.7L15.37 12.67C15.15 11.84 14.3 10.95 13.49 10.68L13.15 10.57C12.34 10.3 11.19 10.57 10.59 11.17L8.94 12.82C8.65 13.11 8.46 13.94 8.46 13.94C8.41 19.15 10.45 24.17 14.13 27.86C17.81 31.53 22.81 33.57 28 33.52C28.03 33.52 28.89 33.34 29.18 33.05L30.82 31.41C31.42 30.81 31.69 29.66 31.42 28.85Z" fill="#E3010F" fill-opacity="1.000000" fill-rule="nonzero"/>
</svg>
