<svg width="34.000000" height="51.000000" viewBox="0 0 34 51" fill="none" xmlns="http://www.w3.org/2000/svg" xmlns:xlink="http://www.w3.org/1999/xlink">
	<desc>
			Created with Pixso.
	</desc>
	<defs/>
	<path id="Vector" d="M16.5 32.27C15.95 32.27 15.5 32.71 15.5 33.26C15.5 33.81 15.95 34.26 16.5 34.26C17.05 34.26 17.49 33.81 17.49 33.26C17.49 32.71 17.05 32.27 16.5 32.27Z" fill="#E3010F" fill-opacity="1.000000" fill-rule="nonzero"/>
	<path id="Vector" d="M29.45 42.53L29.35 42.53L28.55 35.09C28.22 32.12 26.81 29.38 24.58 27.39C23.6 26.51 22.5 25.81 21.31 25.29C25.15 23.63 28 20.02 28.53 15.63C28.53 15.63 28.53 15.62 28.53 15.62C28.53 15.61 28.54 15.61 28.54 15.6C28.54 15.57 28.55 15.53 28.55 15.49L29.35 7.46L29.45 7.46C30.51 7.46 31.51 7.05 32.27 6.29C33.02 5.54 33.43 4.54 33.43 3.47C33.43 1.28 31.64 -0.51 29.45 -0.51L3.54 -0.51C2.48 -0.51 1.48 -0.1 0.72 0.66C-0.03 1.41 -0.44 2.41 -0.44 3.47C-0.44 5.67 1.35 7.46 3.54 7.46L3.64 7.46L4.44 15.5C4.44 15.53 4.45 15.57 4.45 15.6C4.45 15.61 4.46 15.61 4.46 15.62C4.46 15.62 4.46 15.63 4.46 15.63C4.99 20.02 7.83 23.62 11.68 25.29C7.79 26.97 4.94 30.63 4.44 35.09L3.64 42.53L3.54 42.53C2.48 42.53 1.48 42.95 0.72 43.7C-0.03 44.45 -0.44 45.45 -0.44 46.52C-0.44 48.71 1.35 50.5 3.54 50.5L29.45 50.5C30.51 50.5 31.51 50.09 32.27 49.33C33.02 48.58 33.43 47.58 33.43 46.52C33.43 44.32 31.64 42.53 29.45 42.53ZM3.54 5.47C2.44 5.47 1.55 4.57 1.55 3.47C1.55 2.94 1.76 2.44 2.13 2.07C2.51 1.69 3.01 1.48 3.54 1.48L29.45 1.48C30.55 1.48 31.44 2.38 31.44 3.47C31.44 4.01 31.23 4.51 30.86 4.88C30.48 5.26 29.98 5.47 29.45 5.47L28.45 5.47L4.54 5.47L3.54 5.47ZM5.64 7.46L27.35 7.46L26.65 14.51L6.34 14.51L5.64 7.46ZM6.64 16.5L26.35 16.5C25.29 21.02 21.23 24.3 16.5 24.3C11.76 24.3 7.7 21.02 6.64 16.5ZM6.42 35.31C6.96 30.5 10.78 26.8 15.5 26.34L15.5 29.28C15.5 29.83 15.94 30.28 16.5 30.28C17.05 30.28 17.49 29.83 17.49 29.28L17.49 26.34C19.63 26.55 21.64 27.43 23.25 28.87C25.12 30.54 26.29 32.82 26.57 35.3L27.26 41.76L17.46 36.49C17.39 36.46 17.31 36.43 17.23 36.41C16.75 36.28 16.23 36.29 15.75 36.42C15.67 36.44 15.6 36.47 15.53 36.5L5.73 41.76L6.42 35.31ZM24.49 42.53L8.51 42.53L16.35 38.32C16.45 38.31 16.55 38.31 16.65 38.32L24.49 42.53ZM30.86 47.92C30.48 48.3 29.98 48.51 29.45 48.51L3.54 48.51C2.44 48.51 1.55 47.61 1.55 46.52C1.55 45.98 1.76 45.48 2.13 45.11C2.51 44.73 3.01 44.52 3.54 44.52L4.53 44.52C4.53 44.52 4.54 44.52 4.54 44.52L4.54 44.52L28.45 44.52C28.45 44.52 28.45 44.52 28.45 44.52C28.45 44.52 28.45 44.52 28.45 44.52L29.45 44.52C30.55 44.52 31.44 45.42 31.44 46.52C31.44 47.05 31.23 47.55 30.86 47.92Z" fill="#E3010F" fill-opacity="1.000000" fill-rule="nonzero"/>
</svg>
