<svg width="41.000000" height="41.000000" viewBox="0 0 41 41" fill="none" xmlns="http://www.w3.org/2000/svg" xmlns:xlink="http://www.w3.org/1999/xlink">
	<desc>
			Created with Pixso.
	</desc>
	<defs/>
	<path id="Vector" d="M20 0C8.72 0 -0.5 9.22 -0.5 20.5C-0.5 31.77 8.72 41 20 41C31.27 41 40.5 31.77 40.5 20.5C40.5 9.22 31.27 0 20 0ZM20 36.9C10.98 36.9 3.6 29.51 3.6 20.5C3.6 11.48 10.98 4.09 20 4.09C29.02 4.09 36.39 11.48 36.39 20.5C36.39 29.51 29.02 36.9 20 36.9Z" fill="#E3010F" fill-opacity="1.000000" fill-rule="nonzero"/>
	<path id="Vector" d="M21.02 10.25L17.94 10.25L17.94 22.54L28.6 29.11L30.24 26.44L21.02 20.91L21.02 10.25Z" fill="#E3010F" fill-opacity="1.000000" fill-rule="nonzero"/>
</svg>
