<svg width="42.000000" height="42.000000" viewBox="0 0 42 42" fill="none" xmlns="http://www.w3.org/2000/svg" xmlns:xlink="http://www.w3.org/1999/xlink">
	<desc>
			Created with Pixso.
	</desc>
	<defs/>
	<path id="Vector" d="M35.28 28.14C35.11 28.08 34.92 28.06 34.74 28.07C34.55 28.08 34.37 28.13 34.21 28.22C34.04 28.3 33.9 28.41 33.78 28.55C33.66 28.69 33.57 28.85 33.51 29.03C33.45 29.2 33.43 29.39 33.44 29.57C33.46 29.76 33.51 29.93 33.59 30.1C33.68 30.26 33.79 30.41 33.93 30.53C34.07 30.65 34.24 30.74 34.41 30.79C37.6 31.84 39.03 33.09 39.03 33.86C39.03 35.8 31.8 38.74 20.91 38.74C10.01 38.74 2.78 35.8 2.78 33.86C2.78 33.09 4.21 31.84 7.4 30.79C7.58 30.74 7.74 30.65 7.88 30.53C8.02 30.41 8.14 30.26 8.22 30.1C8.3 29.93 8.35 29.76 8.37 29.57C8.38 29.39 8.36 29.2 8.3 29.03C8.25 28.85 8.15 28.69 8.03 28.55C7.91 28.41 7.77 28.3 7.6 28.22C7.44 28.13 7.26 28.08 7.07 28.07C6.89 28.06 6.71 28.08 6.53 28.14C1.13 29.91 0 32.23 0 33.86C0 38.89 10.51 41.52 20.91 41.52C31.3 41.52 41.82 38.89 41.82 33.86C41.82 32.23 40.68 29.91 35.28 28.14Z" fill="#E3010F" fill-opacity="1.000000" fill-rule="nonzero"/>
	<path id="Vector" d="M20.04 35.64C20.28 35.84 20.59 35.95 20.91 35.95C21.22 35.95 21.53 35.84 21.78 35.64C22.29 35.24 34.25 25.52 34.25 13.05C34.25 9.51 32.84 6.11 30.34 3.61C27.84 1.11 24.45 -0.3 20.91 -0.3C17.37 -0.3 13.97 1.11 11.47 3.61C8.97 6.11 7.56 9.51 7.56 13.05C7.56 25.52 19.53 35.24 20.04 35.64ZM16.13 13.05C16.13 12.1 16.41 11.18 16.93 10.39C17.46 9.6 18.2 8.99 19.08 8.63C19.95 8.27 20.91 8.17 21.84 8.36C22.77 8.54 23.62 9 24.29 9.67C24.95 10.34 25.41 11.19 25.59 12.11C25.78 13.04 25.68 14 25.32 14.88C24.96 15.75 24.35 16.5 23.56 17.02C22.78 17.55 21.85 17.83 20.91 17.83C19.64 17.83 18.42 17.32 17.53 16.43C16.63 15.53 16.13 14.31 16.13 13.05L16.13 13.05Z" fill="#E3010F" fill-opacity="1.000000" fill-rule="nonzero"/>
</svg>
