<svg width="197.000000" height="88.000000" viewBox="0 0 197 88" fill="none" xmlns="http://www.w3.org/2000/svg" xmlns:xlink="http://www.w3.org/1999/xlink">
	<desc>
			Created with Pixso.
	</desc>
	<defs/>
	<path id="Vector" d="M134.61 59.6L134.61 5.68L167.26 5.68L167.26 59.6L134.61 59.6ZM139.13 55.2L139.13 10.09L162.73 10.09L162.73 55.2L139.13 55.2Z" fill="#E3010F" fill-opacity="1.000000" fill-rule="evenodd"/>
	<path id="Vector" d="M134.61 59.61C137.18 52.23 139.76 44.84 142.35 37.42C144.93 30.01 147.53 22.55 150.16 15.03L166.62 15.07L183.05 15.12C180.4 22.6 177.75 30.05 175.12 37.47L167.26 59.62L134.61 59.62L134.61 59.61ZM140.4 56C142.56 49.82 144.73 43.63 146.89 37.41C149.06 31.2 151.24 24.96 153.43 18.69L165.34 18.73L177.24 18.76C175.03 25.02 172.82 31.24 170.62 37.45C168.42 43.66 166.23 49.84 164.05 56L140.4 56L140.4 56Z" fill="#E3010F" fill-opacity="1.000000" fill-rule="evenodd"/>
	<path id="Vector" d="M134.61 59.61L145.87 44.41L157.01 29.38L173.19 29.12L189.66 28.85C185.96 33.93 182.25 39.03 178.52 44.14L167.26 59.61L134.61 59.61ZM140.91 57.11L150.33 44.38L159.65 31.77L171.38 31.59L183.25 31.41C180.15 35.66 177.05 39.92 173.93 44.19L164.51 57.08L152.6 57.08L140.88 57.08L140.91 57.11Z" fill="#E3010F" fill-opacity="1.000000" fill-rule="evenodd"/>
	<path id="Vector" d="M134.61 59.61L141.99 54.86C144.43 53.28 146.86 51.71 149.29 50.16L156.42 45.56L163.46 41.01L195 41.01C192.73 42.52 190.48 44.04 188.21 45.56L181.35 50.16L174.32 54.86L167.22 59.61L134.61 59.61ZM141.54 58.04L147.66 54.08L153.73 50.16L159.68 46.3L165.58 42.52L188.43 42.52L182.71 46.34L176.92 50.16L171.03 54.08L165.08 58.04L141.55 58.04L141.54 58.04Z" fill="#E3010F" fill-opacity="1.000000" fill-rule="evenodd"/>
	<path id="Vector" d="M8.02 5.76L13.16 5.76L13.16 28.82L8.02 28.82L8.02 19.73L5.19 19.73L5.19 28.82L0.05 28.82L0.05 5.76L5.19 5.76L5.19 14.72L8.02 14.72L8.02 5.76ZM26.18 10.77L21.34 10.77L21.34 14.72L25.85 14.72L25.85 19.73L21.34 19.73L21.34 23.82L26.18 23.82L26.18 28.83L16.2 28.83L16.2 5.76L26.18 5.76L26.18 10.77ZM40.72 5.76L47.11 5.76L47.11 28.82L41.94 28.82L41.94 17.62L39.43 28.82L36.34 28.82L33.83 17.62L33.83 28.82L28.67 28.82L28.67 5.76L35.06 5.76L37.87 20.09L40.71 5.76L40.72 5.76ZM59.84 10.77L54.97 10.77L54.97 14.72L59.51 14.72L59.51 19.73L55 19.73L55 23.82L59.87 23.82L59.87 28.83L49.85 28.83L49.85 5.76L59.84 5.76L59.84 10.77ZM75.2 23.75L76.82 23.75L76.82 32.65L71.65 32.65L71.65 28.8L62.09 28.8L62.09 5.76L67.23 5.76L67.23 23.78L70.06 23.78L70.06 5.76L75.2 5.76L75.2 23.78L75.2 23.75ZM93.43 28.8L87.96 28.8L84.44 21.42L84.44 28.8L79.1 28.8L79.1 5.76L84.44 5.76L84.44 12.85L87.73 5.76L93.2 5.76L88.39 17.19L93.43 28.82L93.43 28.8ZM105.24 5.74L110.31 5.74L110.31 28.8L105.13 28.8L105.13 16.6L100.81 28.82L95.73 28.82L95.73 5.76L100.9 5.76L100.9 17.95L105.23 5.76L105.24 5.74ZM121.29 -0.53L124.91 -0.53C124.88 0.68 124.37 1.83 123.5 2.67C122.85 3.3 122.03 3.72 121.14 3.89C120.26 4.07 119.34 3.98 118.5 3.64C117.67 3.3 116.95 2.73 116.43 1.99C115.91 1.25 115.62 0.37 115.59 -0.53L119.21 -0.53C119.23 -0.27 119.35 -0.04 119.54 0.13C119.74 0.3 119.99 0.4 120.25 0.4C120.51 0.4 120.76 0.3 120.96 0.13C121.15 -0.04 121.27 -0.27 121.29 -0.53ZM122.44 5.76L127.52 5.76L127.52 28.82L122.34 28.82L122.34 16.6L118.02 28.82L112.95 28.82L112.95 5.76L118.11 5.76L118.11 17.95L122.44 5.76ZM0 51.82L0 43.99C-0.03 42.68 0.18 41.37 0.6 40.13C0.92 39.16 1.48 38.29 2.23 37.59C2.86 37.02 3.59 36.58 4.39 36.28C6 35.73 7.74 35.73 9.35 36.28C10.14 36.57 10.88 37 11.51 37.56C12.26 38.24 12.82 39.1 13.13 40.06C13.55 41.3 13.76 42.6 13.76 43.91L13.76 44.68L8.48 44.68L8.48 44.04C8.42 42 7.9 40.98 6.93 40.98C6.68 40.98 6.44 41.05 6.23 41.19C6.02 41.34 5.86 41.54 5.78 41.77C5.5 42.56 5.38 43.38 5.42 44.21L5.42 51.6C5.38 52.43 5.5 53.27 5.78 54.06C5.86 54.3 6.02 54.5 6.22 54.65C6.43 54.79 6.68 54.87 6.93 54.86C7.92 54.86 8.44 53.82 8.48 51.74L8.48 51.13L13.76 51.13L13.76 51.94C13.76 53.24 13.55 54.54 13.13 55.78C12.82 56.74 12.26 57.61 11.51 58.29C10.88 58.85 10.14 59.28 9.35 59.56C7.74 60.12 6 60.12 4.39 59.56C3.59 59.27 2.86 58.82 2.23 58.25C1.48 57.56 0.92 56.69 0.6 55.72C0.18 54.48 -0.03 53.17 0 51.85L0 51.82ZM28.07 36.16L28.07 41.27L24.47 41.27L24.47 59.67L19.23 59.67L19.23 41.27L15.69 41.27L15.69 36.16L28.07 36.16ZM38.73 59.68L37.96 55.11L34.71 55.11L33.9 59.68L28.67 59.68L32.94 36.16L39.69 36.16L44 59.68L38.73 59.68ZM35.24 49.87L37.33 49.87L36.29 42.08L35.21 49.87L35.24 49.87ZM54.57 36.16L59.81 36.16L59.81 59.68L54.57 59.68L54.57 50.41L51.68 50.41L51.68 59.68L46.44 59.68L46.44 36.16L51.68 36.16L51.68 45.3L54.57 45.3L54.57 36.16ZM78.23 54.56L79.86 54.56L79.86 63.76L74.58 63.76L74.58 59.73L67.38 59.73L67.38 63.76L62.11 63.76L62.11 54.56L62.81 54.56C64.22 54.39 64.92 53.34 64.92 51.41L64.92 36.16L78.23 36.16L78.23 54.56ZM69.58 54.56L72.97 54.56L72.97 41.3L70.17 41.3L70.17 51.58C70.2 52.6 69.99 53.62 69.56 54.54L69.58 54.56ZM91.9 59.7L91.13 55.13L87.88 55.13L87.07 59.7L81.83 59.7L86.1 36.18L92.85 36.18L97.15 59.7L91.9 59.7ZM88.4 49.89L90.52 49.89L89.48 42.09L88.4 49.89L88.4 49.89ZM99.71 36.18L105.18 36.18C105.92 36.18 106.66 36.24 107.39 36.36C108.11 36.5 108.81 36.72 109.47 37.04C110.14 37.34 110.74 37.75 111.26 38.26C111.79 38.81 112.19 39.46 112.45 40.18C112.76 41.03 112.92 41.93 112.9 42.84L112.9 44.46C112.92 45.49 112.72 46.52 112.3 47.47C111.94 48.28 111.38 48.98 110.67 49.51C109.99 50.01 109.23 50.4 108.42 50.66C107.57 50.92 106.69 51.07 105.8 51.11L104.96 51.11L104.96 59.68L99.72 59.68L99.72 36.16L99.71 36.18ZM107.82 43.81L107.82 43.54C107.87 42.91 107.67 42.29 107.28 41.81C107.12 41.63 106.93 41.49 106.71 41.4C106.49 41.31 106.26 41.26 106.02 41.27L104.94 41.27L104.94 46.07L106.02 46.07C106.26 46.08 106.49 46.03 106.71 45.94C106.93 45.84 107.12 45.7 107.28 45.53C107.67 45.06 107.87 44.45 107.82 43.84L107.82 43.81ZM127.49 36.18L127.49 41.29L123.9 41.29L123.9 59.68L118.65 59.68L118.65 41.29L115.09 41.29L115.09 36.18L127.49 36.18Z" fill="#E3010F" fill-opacity="1.000000" fill-rule="nonzero"/>
	<path id="Кухни на заказ в Краснодаре" d="M165.14 82.26Q165.39 81.45 165.39 80.46Q165.39 79.12 164.95 78.13Q164.67 77.53 164.23 77.08Q163.96 76.81 163.62 76.6Q162.73 76.06 161.4 76.06Q160.03 76.06 159.14 76.6Q158.77 76.83 158.47 77.14Q158.06 77.56 157.81 78.14Q157.37 79.13 157.37 80.45Q157.37 81.44 157.62 82.26Q157.86 83.07 158.36 83.66Q158.47 83.78 158.59 83.9Q159.02 84.31 159.61 84.56Q160.36 84.87 161.39 84.87Q162.39 84.87 163.14 84.56Q163.73 84.31 164.16 83.91Q164.28 83.79 164.39 83.66Q164.89 83.08 165.14 82.26ZM70.88 79.19Q71.13 78.77 71.13 78.19Q71.13 77.81 71 77.47Q70.92 77.27 70.79 77.09Q70.44 76.61 69.79 76.34Q69.14 76.07 68.2 76.07Q67.52 76.07 66.96 76.19Q66.4 76.3 65.93 76.51Q65.47 76.71 65.08 76.98L65.71 77.93Q66.08 77.69 66.48 77.52Q66.62 77.46 66.77 77.4Q67.33 77.2 68.07 77.2Q68.85 77.2 69.29 77.52Q69.5 77.67 69.61 77.87Q69.73 78.09 69.73 78.39Q69.73 78.66 69.63 78.88Q69.57 79.01 69.48 79.11Q69.23 79.42 68.67 79.58Q68.1 79.75 67.17 79.75L66.22 79.75L66.22 80.87L67.24 80.87Q68.49 80.87 69.21 81.21Q69.63 81.4 69.8 81.72Q69.93 81.96 69.93 82.27Q69.93 82.66 69.76 82.95Q69.63 83.19 69.38 83.36Q68.82 83.75 67.67 83.75Q67.27 83.75 66.81 83.68Q66.35 83.61 65.9 83.49Q65.46 83.36 65.09 83.19L65.09 84.41Q65.63 84.65 66.32 84.76Q67.01 84.87 67.85 84.87Q69.01 84.87 69.79 84.55Q70.57 84.23 70.96 83.66Q71.07 83.49 71.15 83.31Q71.35 82.87 71.35 82.33Q71.35 81.81 71.13 81.41Q70.99 81.15 70.76 80.95Q70.17 80.42 69.05 80.28L69.05 80.24Q69.98 80.1 70.56 79.58Q70.75 79.41 70.88 79.19ZM101.83 79.19Q102.08 78.77 102.08 78.19Q102.08 77.81 101.95 77.47Q101.87 77.27 101.74 77.09Q101.39 76.61 100.74 76.34Q100.09 76.07 99.15 76.07Q98.47 76.07 97.91 76.19Q97.35 76.3 96.88 76.51Q96.42 76.71 96.02 76.98L96.66 77.93Q97.03 77.69 97.43 77.52Q97.57 77.46 97.72 77.4Q98.28 77.2 99.02 77.2Q99.8 77.2 100.24 77.52Q100.45 77.67 100.56 77.87Q100.68 78.09 100.68 78.39Q100.68 78.66 100.58 78.88Q100.52 79.01 100.43 79.11Q100.18 79.42 99.62 79.58Q99.05 79.75 98.12 79.75L97.17 79.75L97.17 80.87L98.19 80.87Q99.44 80.87 100.16 81.21Q100.58 81.4 100.75 81.72Q100.88 81.96 100.88 82.27Q100.88 82.66 100.71 82.95Q100.57 83.19 100.33 83.36Q99.77 83.75 98.62 83.75Q98.22 83.75 97.76 83.68Q97.3 83.61 96.85 83.49Q96.41 83.36 96.04 83.19L96.04 84.41Q96.58 84.65 97.27 84.76Q97.96 84.87 98.8 84.87Q99.96 84.87 100.74 84.55Q101.52 84.23 101.91 83.66Q102.02 83.49 102.1 83.31Q102.3 82.87 102.3 82.33Q102.3 81.81 102.08 81.41Q101.94 81.15 101.71 80.95Q101.12 80.42 100 80.28L100 80.24Q100.93 80.1 101.51 79.58Q101.7 79.41 101.83 79.19ZM143.71 77.49Q144.19 77.26 144.81 77.26Q145.2 77.26 145.57 77.35Q145.7 77.38 145.82 77.42Q146.3 77.57 146.75 77.78L147.24 76.62Q146.71 76.36 146.08 76.21Q145.85 76.16 145.62 76.12Q145.22 76.07 144.82 76.07Q143.84 76.07 143.08 76.39Q142.51 76.63 142.08 77.01Q141.93 77.15 141.8 77.3Q141.29 77.88 141.02 78.69Q140.75 79.5 140.75 80.47Q140.75 81.8 141.17 82.79Q141.45 83.44 141.91 83.89Q142.16 84.14 142.46 84.33Q143.33 84.87 144.64 84.87Q145.34 84.87 145.87 84.78Q146.4 84.69 146.92 84.48L146.92 83.29Q146.37 83.47 145.86 83.57Q145.34 83.68 144.8 83.68Q143.92 83.68 143.35 83.3Q143.23 83.22 143.12 83.13Q142.71 82.77 142.49 82.19Q142.21 81.48 142.21 80.48Q142.21 79.74 142.38 79.14Q142.56 78.55 142.89 78.13Q143.07 77.9 143.29 77.74Q143.48 77.59 143.71 77.49ZM59.09 82.38L59.93 84.76L61.42 84.76L58.24 76.16L56.68 76.16L53.5 84.76L54.98 84.76L55.82 82.38L59.09 82.38ZM77.53 82.38L78.37 84.76L79.86 84.76L76.68 76.16L75.12 76.16L71.94 84.76L73.42 84.76L74.26 82.38L77.53 82.38ZM93.16 82.38L94 84.76L95.49 84.76L92.31 76.16L90.75 76.16L87.56 84.76L89.05 84.76L89.88 82.38L93.16 82.38ZM137.7 82.38L138.53 84.76L140.03 84.76L136.85 76.16L135.29 76.16L132.1 84.76L133.58 84.76L134.42 82.38L137.7 82.38ZM180.39 82.38L181.23 84.76L182.72 84.76L179.54 76.16L177.98 76.16L174.79 84.76L176.27 84.76L177.11 82.38L180.39 82.38ZM6.05 84.76L7.68 84.76L4.06 80.33L7.52 76.19L5.98 76.19L2.53 80.34L2.53 76.19L1.12 76.19L1.12 84.76L2.53 84.76L2.53 80.41L6.05 84.76ZM12.65 82.33L15.38 76.19L13.91 76.19L12.11 80.4Q12.06 80.53 11.99 80.7Q11.92 80.87 11.86 81.03Q11.8 81.19 11.76 81.31L11.71 81.31Q11.66 81.17 11.59 81.01Q11.53 80.85 11.46 80.69Q11.39 80.54 11.34 80.44L9.32 76.19L7.81 76.19L10.95 82.45Q10.79 82.84 10.59 83.11Q10.45 83.3 10.27 83.42Q10.19 83.47 10.11 83.51Q9.83 83.64 9.4 83.64Q9.09 83.64 8.79 83.59Q8.48 83.53 8.22 83.42L8.22 84.7Q8.49 84.78 8.82 84.83Q9.15 84.87 9.48 84.87Q10.38 84.87 10.95 84.58Q11.06 84.52 11.16 84.45Q11.59 84.17 11.9 83.71Q12.29 83.15 12.65 82.33ZM21.22 84.76L22.82 84.76L19.95 80.36L22.62 76.19L21.11 76.19L19.13 79.44L17.14 76.19L15.59 76.19L18.24 80.32L15.39 84.76L16.9 84.76L19.07 81.25L21.22 84.76ZM29.33 84.76L30.73 84.76L30.73 76.19L29.33 76.19L29.33 79.69L25.38 79.69L25.38 76.19L23.97 76.19L23.97 84.76L25.38 84.76L25.38 80.89L29.33 80.89L29.33 84.76ZM34.28 76.19L33 76.19L33 84.76L34.64 84.76L39.01 77.87L39.07 77.87Q39.06 77.98 39.04 78.24Q39.02 78.51 39.01 78.85Q38.99 79.2 38.98 79.57Q38.97 79.94 38.97 80.25L38.97 84.76L40.24 84.76L40.24 76.19L38.6 76.19L34.24 83.03L34.2 83.03Q34.21 82.92 34.23 82.66Q34.24 82.4 34.25 82.06Q34.27 81.73 34.27 81.38Q34.28 81.02 34.28 80.73L34.28 76.19ZM50.96 84.76L52.36 84.76L52.36 76.19L50.96 76.19L50.96 79.69L47.01 79.69L47.01 76.19L45.6 76.19L45.6 84.76L47.01 84.76L47.01 80.89L50.96 80.89L50.96 84.76ZM85.92 84.76L87.56 84.76L83.94 80.33L87.39 76.19L85.86 76.19L82.4 80.34L82.4 76.19L81 76.19L81 84.76L82.4 84.76L82.4 80.41L85.92 84.76ZM109.68 76.19L107.13 76.19L107.13 84.76L110.2 84.76Q111.15 84.76 111.84 84.47Q112.41 84.23 112.77 83.8Q112.84 83.72 112.9 83.63Q112.91 83.61 112.93 83.58Q113.27 83.04 113.27 82.3Q113.27 81.63 113.04 81.22Q112.89 80.94 112.66 80.74Q112.55 80.65 112.43 80.58Q112.04 80.36 111.54 80.27L111.54 80.21Q112.02 80.12 112.35 79.87Q112.46 79.78 112.56 79.68Q112.74 79.48 112.85 79.22Q113.02 78.82 113.02 78.33Q113.02 77.52 112.63 77.04Q112.44 76.82 112.18 76.67Q111.34 76.19 109.68 76.19ZM123.08 84.76L124.72 84.76L121.1 80.33L124.55 76.19L123.02 76.19L119.56 80.34L119.56 76.19L118.16 76.19L118.16 84.76L119.56 84.76L119.56 80.41L123.08 84.76ZM130.76 76.87Q130 76.19 128.34 76.19L125.85 76.19L125.85 84.76L127.26 84.76L127.26 81.55L128.17 81.55Q129.11 81.55 129.75 81.32Q130.39 81.1 130.78 80.72Q131.04 80.46 131.21 80.15Q131.29 80 131.35 79.83Q131.36 79.8 131.37 79.77Q131.52 79.3 131.52 78.77Q131.52 77.84 131.08 77.23Q130.94 77.03 130.76 76.87ZM154.12 84.76L155.52 84.76L155.52 76.19L154.12 76.19L154.12 79.69L150.17 79.69L150.17 76.19L148.77 76.19L148.77 84.76L150.17 84.76L150.17 80.89L154.12 80.89L154.12 84.76ZM173.44 83.56L173.44 76.19L168.99 76.19Q168.89 77.26 168.68 78.27Q168.48 79.29 168.19 80.23Q167.91 81.17 167.56 82.01Q167.22 82.85 166.83 83.56L166.17 83.56L166.17 87.12L167.52 87.12L167.52 84.76L173.18 84.76L173.18 87.12L174.53 87.12L174.53 83.56L173.44 83.56ZM188.76 76.87Q188 76.19 186.34 76.19L183.85 76.19L183.85 84.76L185.26 84.76L185.26 81.55L186.17 81.55Q187.11 81.55 187.75 81.32Q188.39 81.1 188.78 80.72Q189.05 80.46 189.21 80.15Q189.29 80 189.35 79.83Q189.36 79.8 189.37 79.77Q189.52 79.3 189.52 78.77Q189.52 77.84 189.08 77.23Q188.94 77.03 188.76 76.87ZM191.23 84.76L196.08 84.76L196.08 83.57L192.63 83.57L192.63 80.88L195.86 80.88L195.86 79.7L192.63 79.7L192.63 77.37L196.08 77.37L196.08 76.19L191.23 76.19L191.23 84.76ZM159.12 82.18Q158.85 81.45 158.85 80.46Q158.85 79.46 159.12 78.74Q159.33 78.17 159.74 77.81Q159.84 77.72 159.95 77.64Q160.52 77.25 161.4 77.25Q162.39 77.25 162.98 77.74Q163.17 77.9 163.31 78.1Q163.91 78.96 163.91 80.46Q163.91 81.45 163.65 82.18Q163.43 82.78 163 83.15Q162.92 83.22 162.83 83.29Q162.27 83.68 161.39 83.68Q160.51 83.68 159.95 83.29Q159.86 83.23 159.77 83.15Q159.34 82.78 159.12 82.18ZM57.91 78.83L58.73 81.17L56.21 81.17L57.03 78.83Q57.07 78.69 57.15 78.43Q57.23 78.17 57.31 77.88Q57.4 77.58 57.46 77.34Q57.52 77.54 57.6 77.83Q57.69 78.12 57.78 78.4Q57.87 78.68 57.91 78.83ZM76.35 78.83L77.17 81.17L74.65 81.17L75.47 78.83Q75.51 78.69 75.59 78.43Q75.67 78.17 75.75 77.88Q75.84 77.58 75.9 77.34Q75.96 77.54 76.04 77.83Q76.13 78.12 76.22 78.4Q76.31 78.68 76.35 78.83ZM91.98 78.83L92.8 81.17L90.28 81.17L91.1 78.83Q91.14 78.69 91.22 78.43Q91.3 78.17 91.38 77.88Q91.47 77.58 91.52 77.34Q91.58 77.54 91.67 77.83Q91.76 78.12 91.85 78.4Q91.93 78.68 91.98 78.83ZM136.52 78.83L137.33 81.17L134.81 81.17L135.63 78.83Q135.67 78.69 135.75 78.43Q135.83 78.17 135.92 77.88Q136 77.58 136.06 77.34Q136.12 77.54 136.21 77.83Q136.3 78.12 136.38 78.4Q136.47 78.68 136.52 78.83ZM179.21 78.83L180.02 81.17L177.51 81.17L178.33 78.83Q178.37 78.69 178.45 78.43Q178.52 78.17 178.61 77.88Q178.69 77.58 178.75 77.34Q178.81 77.54 178.9 77.83Q178.99 78.12 179.08 78.4Q179.16 78.68 179.21 78.83ZM109.88 79.72L108.53 79.72L108.53 77.36L109.75 77.36Q110.7 77.36 111.14 77.63Q111.28 77.71 111.38 77.84Q111.58 78.09 111.58 78.51Q111.58 78.97 111.35 79.27Q111.29 79.35 111.21 79.41Q110.84 79.72 109.88 79.72ZM127.26 77.36L128.25 77.36Q129.19 77.36 129.64 77.72Q129.72 77.79 129.79 77.86Q130.09 78.22 130.09 78.83Q130.09 79.38 129.85 79.72Q129.82 79.76 129.8 79.8Q129.56 80.08 129.15 80.22Q128.68 80.37 128.02 80.37L127.26 80.37L127.26 77.36ZM185.26 77.36L186.25 77.36Q187.2 77.36 187.64 77.72Q187.73 77.79 187.79 77.86Q188.09 78.22 188.09 78.83Q188.09 79.38 187.85 79.72Q187.83 79.76 187.8 79.8Q187.56 80.08 187.15 80.22Q186.69 80.37 186.02 80.37L185.26 80.37L185.26 77.36ZM170.15 77.39L172.04 77.39L172.04 83.56L168.31 83.56Q168.65 82.9 168.95 82.11Q169.25 81.33 169.5 80.5Q169.74 79.67 169.91 78.87Q170.08 78.07 170.15 77.39ZM108.53 83.58L108.53 80.86L109.95 80.86Q110.63 80.86 111.04 81.02Q111.44 81.18 111.62 81.48Q111.62 81.48 111.63 81.49Q111.8 81.78 111.8 82.17Q111.8 82.66 111.57 83Q111.5 83.11 111.4 83.2Q111 83.58 110.02 83.58L108.53 83.58Z" fill="#262626" fill-opacity="1.000000" fill-rule="evenodd"/>
</svg>
